<svg id="Capa_1" data-name="Capa 1" xmlns="http://www.w3.org/2000/svg" viewBox="0 0 2066.6 2066.6"><defs><style>.cls-1{fill:#1e1815;}</style></defs><circle class="cls-1" cx="1033.27" cy="313.89" r="313.86"/><path class="cls-1" d="M1768.79,1592.51c-173.26.19-313.66,140.61-313.84,313.87,0,173.32,140.54,313.82,313.87,313.8s313.82-140.53,313.8-313.86S1942.1,1592.51,1768.79,1592.51Z" transform="translate(-16.08 -153.64)"/><path class="cls-1" d="M1049.41,873.11h-.06c-173.25.19-313.64,140.58-313.83,313.83,0,173.34,140.49,313.88,313.83,313.89s313.88-140.49,313.89-313.83S1222.75,873.12,1049.41,873.11Z" transform="translate(-16.08 -153.64)"/><path class="cls-1" d="M1768.79,781.37c173.34,0,313.87-140.49,313.89-313.84s-140.49-313.87-313.84-313.89S1455,294.14,1455,467.48v0C1455.14,640.78,1595.54,781.18,1768.79,781.37Z" transform="translate(-16.08 -153.64)"/><path class="cls-1" d="M1768.79,1500.78c173.32,0,313.83-140.51,313.83-313.84s-140.51-313.83-313.83-313.83h0c-173.25.19-313.65,140.58-313.84,313.83h0C1455,1360.27,1595.46,1500.78,1768.79,1500.78Z" transform="translate(-16.08 -153.64)"/><circle class="cls-1" cx="1033.27" cy="1752.74" r="313.86"/><polygon class="cls-1" points="627.7 1033.3 627.7 313.89 627.7 0.03 0 0.03 0 2066.6 627.7 2066.6 627.7 1033.3"/></svg>